<svg version="1.1" id="Layer_1" xmlns="http://www.w3.org/2000/svg" xmlns:xlink="http://www.w3.org/1999/xlink" x="0px" y="0px"
	 width="100%" viewBox="0 0 510 126" enable-background="new 0 0 510 126" xml:space="preserve">
<path fill="#FBFBFB" opacity="1.000000" stroke="none" 
	d="
M336.000000,127.000000 
	C224.000015,127.000000 112.500038,127.000000 1.000045,127.000000 
	C1.000030,85.000031 1.000030,43.000053 1.000015,1.000062 
	C170.999939,1.000041 340.999878,1.000041 510.999878,1.000021 
	C510.999908,42.999935 510.999908,84.999870 510.999939,126.999901 
	C452.833344,127.000000 394.666656,127.000000 336.000000,127.000000 
M85.268715,68.887604 
	C84.565407,70.005249 83.343742,71.083305 83.254807,72.247856 
	C82.974777,75.915077 83.872742,79.842331 80.089996,82.391777 
	C80.753731,83.254295 81.417458,84.116814 82.135109,85.682724 
	C78.793480,88.783028 75.451851,91.883331 71.152138,94.510612 
	C71.152138,88.858597 71.152138,83.206573 71.152138,77.334244 
	C67.536278,79.807236 66.631126,89.912186 68.976067,96.068443 
	C70.053543,95.690811 71.100853,95.323753 71.894257,95.759399 
	C71.643051,97.038940 71.254005,98.309074 71.165825,99.599747 
	C70.870628,103.920784 72.151337,108.427483 68.362701,112.221016 
	C67.607460,112.977234 68.706146,117.081482 70.072327,118.036797 
	C71.424423,118.982239 75.133888,118.673935 76.102333,117.503365 
	C77.258804,116.105476 77.524284,112.654556 76.566940,111.057068 
	C72.892929,104.926384 73.414154,98.685860 78.573708,93.953278 
	C83.548569,89.390091 88.390991,84.682518 93.834976,80.107697 
	C94.198898,80.082199 94.562813,80.056694 95.585922,80.270287 
	C97.664856,82.683075 100.251587,84.826080 101.708900,87.569122 
	C104.163094,92.188568 105.900406,97.188866 107.939255,102.028969 
	C108.685577,100.423508 108.856522,98.949249 108.652435,97.528877 
	C108.113503,93.778099 107.411964,90.050690 107.081062,85.842850 
	C107.338921,85.582169 107.596786,85.321480 108.338661,85.550293 
	C108.952354,83.291458 109.497421,81.010986 110.200821,78.780449 
	C110.794464,76.897942 111.091682,74.616341 112.346535,73.298058 
	C119.939117,65.321632 120.014175,55.067493 112.623001,46.937126 
	C111.210106,45.382931 110.541374,42.753365 110.368622,40.554008 
	C110.013542,36.033428 109.187691,31.907902 105.308174,28.163666 
	C104.764465,29.732016 103.948097,30.892511 104.246880,31.413589 
	C106.682693,35.661648 107.564880,39.995121 106.151253,44.813549 
	C105.937592,45.541805 106.974907,46.883591 107.743622,47.616302 
	C118.165413,57.550064 116.862396,67.233162 103.501221,74.101639 
	C102.997620,74.414268 102.494026,74.726898 101.296120,74.952515 
	C97.880638,71.606537 94.465164,68.260567 91.792526,64.828354 
	C95.007477,63.643902 98.392906,62.770184 101.363579,61.140469 
	C102.792618,60.356495 104.353783,58.051567 104.204407,56.605961 
	C104.024712,54.866955 102.392235,52.480686 100.827362,51.907639 
	C99.278984,51.340637 95.909431,52.107159 95.299522,53.295296 
	C93.422653,56.951500 92.484001,61.089329 90.595421,65.722519 
	C87.962738,64.627968 85.330055,63.533413 82.697372,62.438858 
	C82.469040,62.896976 82.240707,63.355099 82.012375,63.813217 
	C83.660294,65.257706 85.308205,66.702187 86.736374,68.484032 
	C86.549339,68.681259 86.333305,68.838699 85.268715,68.887604 
M61.752735,95.925873 
	C62.461834,96.198654 63.170933,96.471436 64.285759,96.900299 
	C64.285759,92.068893 64.285759,87.476814 64.285759,82.884735 
	C63.791332,82.757362 63.296909,82.629982 62.802483,82.502609 
	C62.205929,84.141762 61.274292,85.744324 61.090424,87.428535 
	C60.806210,90.031906 61.033146,92.691093 60.379799,95.065369 
	C57.810612,93.815323 56.900261,88.876396 52.295479,91.088135 
	C52.732014,92.018456 52.850166,92.546135 53.164436,92.899307 
	C59.517731,100.039078 59.733505,103.069580 55.676464,112.000740 
	C54.987705,113.516975 55.896446,116.933212 57.207394,117.861702 
	C58.589298,118.840439 62.060997,118.679237 63.283638,117.558525 
	C64.485741,116.456642 64.454697,113.462959 64.165932,111.411880 
	C63.754467,108.489243 62.473812,105.700287 61.830650,102.795288 
	C61.339703,100.577789 61.261864,98.268829 61.752735,95.925873 
M35.708656,73.459373 
	C37.730568,64.559044 46.603157,64.442841 53.413963,60.339783 
	C45.383904,60.150063 39.071743,62.347904 33.066994,65.878105 
	C31.919235,66.552879 30.200539,66.256500 29.354376,66.344688 
	C24.529509,75.361046 15.113692,83.030884 14.794061,96.119667 
	C16.245798,93.939445 17.097387,92.462311 18.141012,91.136337 
	C20.048992,88.712143 22.070545,86.377335 24.267761,84.761993 
	C25.918737,87.735939 27.497349,90.755531 29.309034,93.628120 
	C29.544870,94.002060 30.980804,93.619125 31.860861,93.586761 
	C31.763332,92.723969 31.946608,91.672676 31.517054,91.032768 
	C30.071083,88.878700 28.515858,86.770897 26.762938,84.865753 
	C26.206676,84.261185 24.901188,84.345970 23.435583,83.482071 
	C26.236624,79.939606 28.539980,75.700455 34.204300,76.598557 
	C35.839863,78.352013 37.475422,80.105476 39.172752,81.925163 
	C42.101433,78.003616 40.844067,75.787689 35.708656,73.459373 
M26.831585,108.036041 
	C41.344234,96.871880 55.885944,85.745071 70.336823,74.501511 
	C72.400696,72.895714 74.347046,70.941513 75.800697,68.780548 
	C85.830124,53.870975 95.718872,38.866726 105.632751,23.879623 
	C106.176216,23.058054 106.539955,22.117605 107.409103,20.398111 
	C105.881622,21.101685 105.233109,21.265001 104.751686,21.641809 
	C89.939613,33.235401 75.137619,44.841911 60.361122,56.480789 
	C59.462063,57.188946 58.663227,58.097553 58.023643,59.051006 
	C47.182709,75.212120 36.374416,91.395134 25.097830,107.990211 
	C25.126047,108.267433 25.154263,108.544662 25.182484,108.821892 
	C25.507404,108.601204 25.832325,108.380524 26.831585,108.036041 
M321.856476,44.509521 
	C321.856476,59.924049 321.856476,75.338577 321.856476,90.614525 
	C329.985687,91.913322 329.986633,91.913322 329.982056,84.707947 
	C329.974426,72.710770 329.953369,60.713566 329.973114,48.716431 
	C329.975464,47.287399 330.197021,45.858727 330.316956,44.429890 
	C331.496948,44.960781 331.750641,45.387486 331.905792,45.847443 
	C336.522125,59.532421 341.109253,73.227287 345.755493,86.902077 
	C346.549866,89.239975 347.229736,91.488815 350.729706,91.365479 
	C354.016479,91.249664 355.256561,89.989250 356.196838,86.940620 
	C358.689056,78.860207 361.610718,70.910545 364.433472,62.934322 
	C366.645325,56.684143 368.964630,50.471996 371.236206,44.242958 
	C372.333893,58.565163 372.352539,72.547432 372.317352,86.529572 
	C372.310730,89.163284 372.087158,91.364082 376.028564,91.373230 
	C380.066223,91.382591 380.136200,89.282448 380.123169,86.307976 
	C380.049500,69.478867 380.117554,52.649139 380.048737,35.819984 
	C380.039520,33.561253 381.220184,30.189957 377.246582,30.115089 
	C373.722748,30.048695 369.388672,28.414547 367.786438,33.910923 
	C366.209015,39.322197 364.229523,44.617081 362.398834,49.953548 
	C358.914093,60.111473 355.409576,70.262634 351.484650,81.661491 
	C350.402618,78.746788 349.729401,77.089294 349.167419,75.394905 
	C344.517731,61.376530 339.957977,47.327847 335.220337,33.339363 
	C333.240143,27.492599 328.140259,30.703110 324.434418,30.310823 
	C323.748444,30.238207 322.232727,33.291859 321.967682,35.034573 
	C321.546661,37.803154 321.856018,40.682819 321.856476,44.509521 
M212.605194,56.112194 
	C211.163803,56.034874 209.722427,55.957554 208.168854,55.874214 
	C208.168854,49.656521 208.168854,43.783871 208.168854,37.465370 
	C220.110992,37.465370 231.686615,37.465370 243.186798,37.465370 
	C244.159210,30.020897 244.130859,29.994591 237.228500,29.998022 
	C226.070724,30.003571 214.912308,30.065149 203.755585,29.956778 
	C200.631790,29.926434 199.291595,30.845074 199.316406,34.232162 
	C199.445740,51.883804 199.457809,69.537636 199.303848,87.188904 
	C199.273315,90.690010 200.706528,91.419167 203.769333,91.303123 
	C208.425583,91.126701 213.093491,91.257690 217.756439,91.257767 
	C226.704758,91.257912 235.653076,91.257805 244.740967,91.257805 
	C244.740967,88.487518 244.740967,86.288002 244.740967,83.590424 
	C232.272690,83.590424 220.208145,83.590424 208.209351,83.590424 
	C208.209351,76.546494 208.209351,70.014793 208.209351,62.976604 
	C219.511032,62.976604 230.413651,62.976604 241.247391,62.976604 
	C241.839188,56.122829 241.839188,56.117744 235.570908,56.112984 
	C228.243408,56.107422 220.915924,56.111893 212.605194,56.112194 
M179.414658,59.958561 
	C173.641449,59.958561 167.868225,59.958561 162.134140,59.958561 
	C162.134140,62.755150 162.134140,64.840088 162.134140,67.303802 
	C166.786026,67.303802 171.101730,67.193054 175.405502,67.370918 
	C176.705994,67.424675 178.608917,67.908508 179.145630,68.830208 
	C181.431091,72.754997 179.098969,79.653793 175.014557,81.561737 
	C165.642853,85.939545 156.136383,86.629654 147.619125,80.116814 
	C138.780594,73.358292 138.752472,63.360260 140.437164,53.616943 
	C141.699570,46.315929 145.473328,40.228199 153.171722,37.735157 
	C165.456909,33.756741 173.140686,37.002937 179.851837,49.125557 
	C181.814789,48.592621 183.843063,48.041950 186.399902,47.347775 
	C185.816132,45.414780 185.452194,43.664330 184.772522,42.046516 
	C179.896835,30.441034 164.514435,26.902708 153.609039,29.815489 
	C142.428574,32.801739 135.903793,40.058632 132.382736,51.294914 
	C128.126678,64.876701 134.234451,82.001961 145.525330,88.206764 
	C157.464844,94.768028 175.426086,92.961670 185.868057,83.879616 
	C186.559723,83.278030 187.410233,82.347878 187.423660,81.557579 
	C187.544373,74.451851 187.494186,67.343216 187.494186,59.957520 
	C184.684341,59.957520 182.532700,59.957520 179.414658,59.958561 
M307.385193,78.812790 
	C311.918793,71.126480 312.514465,62.751278 311.405151,54.187366 
	C308.828766,34.297375 287.948547,23.172689 269.960815,31.975555 
	C258.291779,37.686172 252.573654,49.249573 253.813492,65.305283 
	C254.808670,78.192589 263.577911,88.477196 276.079163,91.609383 
	C287.623749,94.501884 300.333160,89.474693 307.385193,78.812790 
M471.688202,84.936073 
	C465.287842,84.080910 458.487610,83.000061 456.276642,75.996582 
	C454.494598,70.351646 451.680725,70.554840 447.199677,72.197411 
	C447.283173,78.577118 450.103149,83.441185 454.915955,87.145653 
	C461.880493,92.506302 470.078674,92.857506 478.261353,91.792297 
	C487.752899,90.556709 494.724609,83.503296 495.217621,75.529381 
	C495.778320,66.460571 491.584015,61.054920 481.170380,57.817661 
	C475.465698,56.044273 469.620361,54.720459 463.926270,52.916691 
	C460.296753,51.766926 457.228241,49.776550 457.445831,45.213577 
	C457.650726,40.917706 460.220642,38.434628 464.098297,37.600582 
	C467.455994,36.878380 471.005157,36.424683 474.406372,36.683762 
	C478.674683,37.008884 483.256622,38.716297 484.312744,43.084385 
	C485.718750,48.899750 488.891083,48.420574 493.346649,47.361355 
	C493.479645,40.939697 490.698303,36.162193 485.590851,33.117924 
	C478.207092,28.716881 470.345795,27.369888 461.926514,30.651680 
	C453.758453,33.835556 449.309875,38.911533 449.271210,46.022854 
	C449.235168,52.646919 453.207550,57.454662 461.427155,60.680702 
	C462.502960,61.102936 463.630432,61.397018 464.741364,61.725468 
	C470.470032,63.419205 476.448090,64.566177 481.822357,67.030785 
	C484.338135,68.184479 487.071991,71.820068 487.179626,74.434875 
	C487.287079,77.044426 484.806152,80.631905 482.416534,82.241478 
	C479.727905,84.052437 475.872437,84.131073 471.688202,84.936073 
M404.833038,43.091290 
	C398.735962,58.895344 392.638885,74.699402 386.512817,90.578590 
	C392.396057,92.237366 395.360260,91.130272 397.237305,85.397804 
	C401.373657,72.765282 401.751862,72.889122 414.299438,72.889122 
	C427.214783,72.889122 427.214783,72.889122 431.855774,85.145454 
	C434.458344,92.018570 435.099121,92.347481 442.729767,90.392509 
	C442.367004,89.176506 442.106964,87.934021 441.634918,86.778114 
	C434.564545,69.465057 427.411469,52.185463 420.426086,34.838299 
	C419.200165,31.793827 417.982910,29.780499 414.119904,29.892933 
	C410.394470,30.001362 408.777740,31.586061 407.892181,34.941914 
	C407.221344,37.483944 405.990082,39.878071 404.833038,43.091290 
M15.086412,57.005978 
	C14.412016,62.406094 15.569651,67.322235 19.344898,71.333443 
	C20.116253,72.153008 21.706938,72.201439 22.919941,72.605339 
	C22.617899,71.470650 22.596838,70.142647 21.969950,69.231445 
	C16.282995,60.965244 17.160566,54.583874 24.678650,47.729485 
	C25.832659,46.677361 26.586613,44.366589 26.384430,42.783691 
	C25.304585,34.329506 29.423052,28.127489 37.611462,25.960131 
	C39.283813,25.517483 41.140385,24.238209 42.071274,22.800293 
	C45.535927,17.448540 49.375385,15.375842 54.421085,16.719263 
	C59.374928,18.038225 61.053333,20.863644 61.065205,27.984533 
	C61.078358,35.876156 61.068211,43.767815 61.068211,51.659454 
	C61.649418,51.815643 62.230621,51.971832 62.811829,52.128021 
	C63.448601,50.391941 64.583427,48.670261 64.634102,46.917240 
	C64.831291,40.094803 64.786407,33.260197 64.637497,26.434357 
	C64.483910,19.394131 61.369011,14.835834 55.981098,13.302361 
	C49.944939,11.584387 44.263985,13.820992 40.117538,19.076811 
	C38.794403,20.753952 36.572636,21.693716 34.889465,23.121120 
	C31.306797,26.159384 25.393923,28.867676 24.753180,32.477493 
	C23.194349,41.259644 18.932623,48.512104 15.086412,57.005978 
M95.102547,25.899813 
	C96.028679,25.169722 96.954811,24.439632 97.331146,24.142958 
	C95.517525,22.181030 93.894394,20.690086 92.586777,18.960594 
	C88.778915,13.924193 83.707092,11.995719 77.663742,13.140891 
	C72.649696,14.091019 68.834351,17.345495 68.453178,22.409336 
	C67.853188,30.380188 68.293709,38.429363 68.293709,46.445377 
	C68.781609,46.568062 69.269508,46.690750 69.757408,46.813435 
	C70.372787,45.034744 71.424667,43.278881 71.519127,41.472942 
	C71.770950,36.658432 71.716904,31.819489 71.585350,26.995689 
	C71.448364,21.972836 72.993904,18.155521 78.202072,16.640713 
	C82.857925,15.286545 87.465790,17.578535 90.366982,22.230072 
	C91.307800,23.738523 93.015976,24.768379 95.102547,25.899813 
M49.944096,52.342407 
	C51.102058,53.524014 52.133705,54.884762 53.463623,55.822502 
	C54.311104,56.420071 55.600651,56.390690 56.691982,56.642426 
	C56.387360,55.525486 56.397034,54.151798 55.727871,53.332653 
	C50.832165,47.339645 50.641319,41.153774 54.470493,34.272495 
	C55.379425,32.639080 54.952717,28.764841 53.699333,27.806995 
	C52.152405,26.624819 48.502895,26.533098 46.887604,27.629128 
	C45.605877,28.498821 44.924519,32.999855 45.876770,33.918182 
	C49.191540,37.114880 48.411495,40.810528 48.606899,44.513596 
	C48.735050,46.942188 49.128525,49.356777 49.944096,52.342407 
M83.990952,105.869484 
	C84.315521,105.801819 84.705894,105.827789 84.955002,105.652740 
	C90.555321,101.717514 96.164932,97.793472 101.649147,93.701591 
	C101.903793,93.511581 101.010307,91.782761 100.651543,90.770615 
	C97.727310,92.530731 93.401283,91.296867 91.672150,95.847710 
	C89.828987,100.698647 85.639862,102.662270 80.453224,102.316963 
	C79.094032,102.226471 77.735794,102.121414 75.977219,101.994095 
	C76.992104,107.132294 80.544159,105.574371 83.990952,105.869484 
M30.586496,54.622349 
	C34.750538,56.560680 38.914581,58.499012 43.078625,60.437344 
	C42.475586,57.112606 40.733128,55.093723 40.551304,52.942909 
	C40.228996,49.130322 38.740097,46.776535 34.952747,46.981392 
	C30.800573,47.205982 29.415258,49.983879 30.586496,54.622349 
M81.924873,23.765770 
	C79.848518,24.700657 76.935211,25.123495 75.953499,26.728096 
	C75.128265,28.076946 76.347519,30.871904 77.042152,32.896088 
	C77.641701,34.643177 78.777115,36.206371 79.954124,38.360600 
	C81.261856,36.559563 82.412460,34.666012 83.863113,33.040188 
	C87.064011,29.452774 86.410919,26.533840 81.924873,23.765770 
M54.062084,101.965065 
	C50.911720,101.380013 47.767017,100.761574 44.608269,100.225960 
	C43.303635,100.004738 41.968864,99.961220 40.647800,99.836876 
	C44.215176,105.170616 48.716316,106.788803 53.997803,105.738365 
	C56.847160,105.171654 56.977142,104.215492 54.062084,101.965065 
z"/>
<path fill="#161616" opacity="1.000000" stroke="none" 
	d="
M321.856445,44.012508 
	C321.856018,40.682819 321.546661,37.803154 321.967682,35.034573 
	C322.232727,33.291859 323.748444,30.238207 324.434418,30.310823 
	C328.140259,30.703110 333.240143,27.492599 335.220337,33.339363 
	C339.957977,47.327847 344.517731,61.376530 349.167419,75.394905 
	C349.729401,77.089294 350.402618,78.746788 351.484650,81.661491 
	C355.409576,70.262634 358.914093,60.111473 362.398834,49.953548 
	C364.229523,44.617081 366.209015,39.322197 367.786438,33.910923 
	C369.388672,28.414547 373.722748,30.048695 377.246582,30.115089 
	C381.220184,30.189957 380.039520,33.561253 380.048737,35.819984 
	C380.117554,52.649139 380.049500,69.478867 380.123169,86.307976 
	C380.136200,89.282448 380.066223,91.382591 376.028564,91.373230 
	C372.087158,91.364082 372.310730,89.163284 372.317352,86.529572 
	C372.352539,72.547432 372.333893,58.565163 371.236206,44.242958 
	C368.964630,50.471996 366.645325,56.684143 364.433472,62.934322 
	C361.610718,70.910545 358.689056,78.860207 356.196838,86.940620 
	C355.256561,89.989250 354.016479,91.249664 350.729706,91.365479 
	C347.229736,91.488815 346.549866,89.239975 345.755493,86.902077 
	C341.109253,73.227287 336.522125,59.532421 331.905792,45.847443 
	C331.750641,45.387486 331.496948,44.960781 330.316956,44.429890 
	C330.197021,45.858727 329.975464,47.287399 329.973114,48.716431 
	C329.953369,60.713566 329.974426,72.710770 329.982056,84.707947 
	C329.986633,91.913322 329.985687,91.913322 321.856476,90.614525 
	C321.856476,75.338577 321.856476,59.924049 321.856445,44.012508 
z"/>
<path fill="#191919" opacity="1.000000" stroke="none" 
	d="
M213.096802,56.112103 
	C220.915924,56.111893 228.243408,56.107422 235.570908,56.112984 
	C241.839188,56.117744 241.839188,56.122829 241.247391,62.976604 
	C230.413651,62.976604 219.511032,62.976604 208.209351,62.976604 
	C208.209351,70.014793 208.209351,76.546494 208.209351,83.590424 
	C220.208145,83.590424 232.272690,83.590424 244.740967,83.590424 
	C244.740967,86.288002 244.740967,88.487518 244.740967,91.257805 
	C235.653076,91.257805 226.704758,91.257912 217.756439,91.257767 
	C213.093491,91.257690 208.425583,91.126701 203.769333,91.303123 
	C200.706528,91.419167 199.273315,90.690010 199.303848,87.188904 
	C199.457809,69.537636 199.445740,51.883804 199.316406,34.232162 
	C199.291595,30.845074 200.631790,29.926434 203.755585,29.956778 
	C214.912308,30.065149 226.070724,30.003571 237.228500,29.998022 
	C244.130859,29.994591 244.159210,30.020897 243.186798,37.465370 
	C231.686615,37.465370 220.110992,37.465370 208.168854,37.465370 
	C208.168854,43.783871 208.168854,49.656521 208.168854,55.874214 
	C209.722427,55.957554 211.163803,56.034874 213.096802,56.112103 
z"/>
<path fill="#121212" opacity="1.000000" stroke="none" 
	d="
M179.897858,59.958038 
	C182.532700,59.957520 184.684341,59.957520 187.494186,59.957520 
	C187.494186,67.343216 187.544373,74.451851 187.423660,81.557579 
	C187.410233,82.347878 186.559723,83.278030 185.868057,83.879616 
	C175.426086,92.961670 157.464844,94.768028 145.525330,88.206764 
	C134.234451,82.001961 128.126678,64.876701 132.382736,51.294914 
	C135.903793,40.058632 142.428574,32.801739 153.609039,29.815489 
	C164.514435,26.902708 179.896835,30.441034 184.772522,42.046516 
	C185.452194,43.664330 185.816132,45.414780 186.399902,47.347775 
	C183.843063,48.041950 181.814789,48.592621 179.851837,49.125557 
	C173.140686,37.002937 165.456909,33.756741 153.171722,37.735157 
	C145.473328,40.228199 141.699570,46.315929 140.437164,53.616943 
	C138.752472,63.360260 138.780594,73.358292 147.619125,80.116814 
	C156.136383,86.629654 165.642853,85.939545 175.014557,81.561737 
	C179.098969,79.653793 181.431091,72.754997 179.145630,68.830208 
	C178.608917,67.908508 176.705994,67.424675 175.405502,67.370918 
	C171.101730,67.193054 166.786026,67.303802 162.134140,67.303802 
	C162.134140,64.840088 162.134140,62.755150 162.134140,59.958561 
	C167.868225,59.958561 173.641449,59.958561 179.897858,59.958038 
z"/>
<path fill="#121212" opacity="1.000000" stroke="none" 
	d="
M307.165649,79.106400 
	C300.333160,89.474693 287.623749,94.501884 276.079163,91.609383 
	C263.577911,88.477196 254.808670,78.192589 253.813492,65.305283 
	C252.573654,49.249573 258.291779,37.686172 269.960815,31.975555 
	C287.948547,23.172689 308.828766,34.297375 311.405151,54.187366 
	C312.514465,62.751278 311.918793,71.126480 307.165649,79.106400 
M300.683777,47.215183 
	C295.888367,39.132736 288.895721,34.903908 279.471283,36.500450 
	C269.894226,38.122845 264.237915,44.332745 262.714050,53.863216 
	C262.064301,57.927040 261.997864,62.186932 262.376923,66.292114 
	C263.308624,76.383232 271.221527,84.327705 280.620758,85.127144 
	C291.111176,86.019386 300.553101,80.064034 302.255432,69.478424 
	C303.371429,62.538719 301.530334,55.123455 300.683777,47.215183 
z"/>
<path fill="#131313" opacity="1.000000" stroke="none" 
	d="
M472.106384,84.949677 
	C475.872437,84.131073 479.727905,84.052437 482.416534,82.241478 
	C484.806152,80.631905 487.287079,77.044426 487.179626,74.434875 
	C487.071991,71.820068 484.338135,68.184479 481.822357,67.030785 
	C476.448090,64.566177 470.470032,63.419205 464.741364,61.725468 
	C463.630432,61.397018 462.502960,61.102936 461.427155,60.680702 
	C453.207550,57.454662 449.235168,52.646919 449.271210,46.022854 
	C449.309875,38.911533 453.758453,33.835556 461.926514,30.651680 
	C470.345795,27.369888 478.207092,28.716881 485.590851,33.117924 
	C490.698303,36.162193 493.479645,40.939697 493.346649,47.361355 
	C488.891083,48.420574 485.718750,48.899750 484.312744,43.084385 
	C483.256622,38.716297 478.674683,37.008884 474.406372,36.683762 
	C471.005157,36.424683 467.455994,36.878380 464.098297,37.600582 
	C460.220642,38.434628 457.650726,40.917706 457.445831,45.213577 
	C457.228241,49.776550 460.296753,51.766926 463.926270,52.916691 
	C469.620361,54.720459 475.465698,56.044273 481.170380,57.817661 
	C491.584015,61.054920 495.778320,66.460571 495.217621,75.529381 
	C494.724609,83.503296 487.752899,90.556709 478.261353,91.792297 
	C470.078674,92.857506 461.880493,92.506302 454.915955,87.145653 
	C450.103149,83.441185 447.283173,78.577118 447.199677,72.197411 
	C451.680725,70.554840 454.494598,70.351646 456.276642,75.996582 
	C458.487610,83.000061 465.287842,84.080910 472.106384,84.949677 
z"/>
<path fill="#090909" opacity="1.000000" stroke="none" 
	d="
M25.558903,107.573303 
	C36.374416,91.395134 47.182709,75.212120 58.023643,59.051006 
	C58.663227,58.097553 59.462063,57.188946 60.361122,56.480789 
	C75.137619,44.841911 89.939613,33.235401 104.751686,21.641809 
	C105.233109,21.265001 105.881622,21.101685 107.409103,20.398111 
	C106.539955,22.117605 106.176216,23.058054 105.632751,23.879623 
	C95.718872,38.866726 85.830124,53.870975 75.800697,68.780548 
	C74.347046,70.941513 72.400696,72.895714 70.336823,74.501511 
	C55.885944,85.745071 41.344234,96.871880 26.346100,107.950012 
	C25.860615,107.863976 25.558901,107.573303 25.558903,107.573303 
M63.545414,60.080132 
	C60.445309,62.228073 59.385815,65.346214 61.890041,68.044128 
	C63.275898,69.537178 66.968277,70.477966 68.647110,69.662590 
	C70.318604,68.850769 71.888718,65.315117 71.511101,63.358227 
	C70.860382,59.986012 68.015121,58.288891 63.545414,60.080132 
z"/>
<path fill="#161616" opacity="1.000000" stroke="none" 
	d="
M404.920654,42.714653 
	C405.990082,39.878071 407.221344,37.483944 407.892181,34.941914 
	C408.777740,31.586061 410.394470,30.001362 414.119904,29.892933 
	C417.982910,29.780499 419.200165,31.793827 420.426086,34.838299 
	C427.411469,52.185463 434.564545,69.465057 441.634918,86.778114 
	C442.106964,87.934021 442.367004,89.176506 442.729767,90.392509 
	C435.099121,92.347481 434.458344,92.018570 431.855774,85.145454 
	C427.214783,72.889122 427.214783,72.889122 414.299438,72.889122 
	C401.751862,72.889122 401.373657,72.765282 397.237305,85.397804 
	C395.360260,91.130272 392.396057,92.237366 386.512817,90.578590 
	C392.638885,74.699402 398.735962,58.895344 404.920654,42.714653 
M411.575165,66.260658 
	C415.601837,66.260658 419.628510,66.260658 424.418884,66.260658 
	C420.847534,56.396431 417.657837,47.586323 414.161743,37.929905 
	C410.736938,47.698563 407.615326,56.602413 404.229126,66.260925 
	C407.033447,66.260925 408.823151,66.260925 411.575165,66.260658 
z"/>
<path fill="#1A1A1A" opacity="1.000000" stroke="none" 
	d="
M15.152906,56.590508 
	C18.932623,48.512104 23.194349,41.259644 24.753180,32.477493 
	C25.393923,28.867676 31.306797,26.159384 34.889465,23.121120 
	C36.572636,21.693716 38.794403,20.753952 40.117538,19.076811 
	C44.263985,13.820992 49.944939,11.584387 55.981098,13.302361 
	C61.369011,14.835834 64.483910,19.394131 64.637497,26.434357 
	C64.786407,33.260197 64.831291,40.094803 64.634102,46.917240 
	C64.583427,48.670261 63.448601,50.391941 62.811829,52.128021 
	C62.230621,51.971832 61.649418,51.815643 61.068211,51.659454 
	C61.068211,43.767815 61.078358,35.876156 61.065205,27.984533 
	C61.053333,20.863644 59.374928,18.038225 54.421085,16.719263 
	C49.375385,15.375842 45.535927,17.448540 42.071274,22.800293 
	C41.140385,24.238209 39.283813,25.517483 37.611462,25.960131 
	C29.423052,28.127489 25.304585,34.329506 26.384430,42.783691 
	C26.586613,44.366589 25.832659,46.677361 24.678650,47.729485 
	C17.160566,54.583874 16.282995,60.965244 21.969950,69.231445 
	C22.596838,70.142647 22.617899,71.470650 22.919941,72.605339 
	C21.706938,72.201439 20.116253,72.153008 19.344898,71.333443 
	C15.569651,67.322235 14.412016,62.406094 15.152906,56.590508 
z"/>
<path fill="#131313" opacity="1.000000" stroke="none" 
	d="
M24.044735,84.005257 
	C22.070545,86.377335 20.048992,88.712143 18.141012,91.136337 
	C17.097387,92.462311 16.245798,93.939445 14.794061,96.119667 
	C15.113692,83.030884 24.529509,75.361046 29.354376,66.344688 
	C30.200539,66.256500 31.919235,66.552879 33.066994,65.878105 
	C39.071743,62.347904 45.383904,60.150063 53.413963,60.339783 
	C46.603157,64.442841 37.730568,64.559044 35.354527,73.947266 
	C34.675621,74.928993 34.350842,75.422829 34.026062,75.916656 
	C28.539980,75.700455 26.236624,79.939606 23.727001,83.784088 
	C24.018419,84.086105 24.044737,84.005257 24.044735,84.005257 
z"/>
<path fill="#171717" opacity="1.000000" stroke="none" 
	d="
M93.291595,80.038383 
	C88.390991,84.682518 83.548569,89.390091 78.573708,93.953278 
	C73.414154,98.685860 72.892929,104.926384 76.566940,111.057068 
	C77.524284,112.654556 77.258804,116.105476 76.102333,117.503365 
	C75.133888,118.673935 71.424423,118.982239 70.072327,118.036797 
	C68.706146,117.081482 67.607460,112.977234 68.362701,112.221016 
	C72.151337,108.427483 70.870628,103.920784 71.165825,99.599747 
	C71.254005,98.309074 71.643051,97.038940 71.984985,95.341141 
	C72.075714,94.922890 72.110214,94.983635 72.110214,94.983643 
	C75.451851,91.883331 78.793480,88.783028 82.070023,85.331253 
	C82.004929,84.979782 82.015976,85.055199 82.304474,85.142281 
	C82.917213,84.552879 83.241440,83.876396 83.880554,83.040543 
	C84.488937,82.519684 84.782440,82.158195 85.418365,81.807312 
	C87.854767,80.564323 89.948746,79.310738 91.994598,78.052750 
	C91.946472,78.048347 91.933998,77.952507 91.988861,78.247635 
	C92.380402,78.716522 92.717087,78.890289 93.005630,79.059456 
	C92.957481,79.054848 92.946304,78.958771 92.949982,79.255112 
	C93.066307,79.713760 93.178947,79.876068 93.291595,80.038383 
z"/>
<path fill="#131313" opacity="1.000000" stroke="none" 
	d="
M104.127968,74.072693 
	C116.862396,67.233162 118.165413,57.550064 107.743622,47.616302 
	C106.974907,46.883591 105.937592,45.541805 106.151253,44.813549 
	C107.564880,39.995121 106.682693,35.661648 104.246880,31.413589 
	C103.948097,30.892511 104.764465,29.732016 105.308174,28.163666 
	C109.187691,31.907902 110.013542,36.033428 110.368622,40.554008 
	C110.541374,42.753365 111.210106,45.382931 112.623001,46.937126 
	C120.014175,55.067493 119.939117,65.321632 112.346535,73.298058 
	C111.091682,74.616341 110.794464,76.897942 110.200821,78.780449 
	C109.497421,81.010986 108.952354,83.291458 108.036774,84.909592 
	C106.109123,81.655891 108.295731,77.237206 103.817650,75.907196 
	C103.745811,75.885864 104.016907,74.709862 104.127968,74.072693 
z"/>
<path fill="#1E1E1E" opacity="1.000000" stroke="none" 
	d="
M94.737854,25.958481 
	C93.015976,24.768379 91.307800,23.738523 90.366982,22.230072 
	C87.465790,17.578535 82.857925,15.286545 78.202072,16.640713 
	C72.993904,18.155521 71.448364,21.972836 71.585350,26.995689 
	C71.716904,31.819489 71.770950,36.658432 71.519127,41.472942 
	C71.424667,43.278881 70.372787,45.034744 69.757408,46.813435 
	C69.269508,46.690750 68.781609,46.568062 68.293709,46.445377 
	C68.293709,38.429363 67.853188,30.380188 68.453178,22.409336 
	C68.834351,17.345495 72.649696,14.091019 77.663742,13.140891 
	C83.707092,11.995719 88.778915,13.924193 92.586777,18.960594 
	C93.894394,20.690086 95.517525,22.181030 97.331146,24.142958 
	C96.954811,24.439632 96.028679,25.169722 94.737854,25.958481 
z"/>
<path fill="#111111" opacity="1.000000" stroke="none" 
	d="
M106.775154,86.313972 
	C107.411964,90.050690 108.113503,93.778099 108.652435,97.528877 
	C108.856522,98.949249 108.685577,100.423508 107.939255,102.028969 
	C105.900406,97.188866 104.163094,92.188568 101.708900,87.569122 
	C100.251587,84.826080 97.664856,82.683075 95.107666,79.821808 
	C94.068367,79.235146 93.507339,79.096954 92.946304,78.958771 
	C92.946304,78.958771 92.957481,79.054848 93.128159,78.644371 
	C92.843887,78.140099 92.388947,78.046303 91.933998,77.952507 
	C91.933998,77.952507 91.946472,78.048347 92.268204,77.698517 
	C91.659042,73.701523 90.931190,69.930061 86.956116,68.146675 
	C85.308205,66.702187 83.660294,65.257706 82.012375,63.813217 
	C82.240707,63.355099 82.469040,62.896976 82.697372,62.438858 
	C85.330055,63.533413 87.962738,64.627968 90.861755,65.343185 
	C91.128082,64.963852 91.049683,64.914589 91.049683,64.914589 
	C94.465164,68.260567 97.880638,71.606537 101.706299,75.368347 
	C103.669373,79.294113 105.222260,82.804047 106.775154,86.313972 
z"/>
<path fill="#121212" opacity="1.000000" stroke="none" 
	d="
M49.673637,52.060020 
	C49.128525,49.356777 48.735050,46.942188 48.606899,44.513596 
	C48.411495,40.810528 49.191540,37.114880 45.876770,33.918182 
	C44.924519,32.999855 45.605877,28.498821 46.887604,27.629128 
	C48.502895,26.533098 52.152405,26.624819 53.699333,27.806995 
	C54.952717,28.764841 55.379425,32.639080 54.470493,34.272495 
	C50.641319,41.153774 50.832165,47.339645 55.727871,53.332653 
	C56.397034,54.151798 56.387360,55.525486 56.691982,56.642426 
	C55.600651,56.390690 54.311104,56.420071 53.463623,55.822502 
	C52.133705,54.884762 51.102058,53.524014 49.673637,52.060020 
z"/>
<path fill="#1D1D1D" opacity="1.000000" stroke="none" 
	d="
M61.000252,96.000557 
	C61.261864,98.268829 61.339703,100.577789 61.830650,102.795288 
	C62.473812,105.700287 63.754467,108.489243 64.165932,111.411880 
	C64.454697,113.462959 64.485741,116.456642 63.283638,117.558525 
	C62.060997,118.679237 58.589298,118.840439 57.207394,117.861702 
	C55.896446,116.933212 54.987705,113.516975 55.676464,112.000740 
	C59.733505,103.069580 59.517731,100.039078 53.164436,92.899307 
	C52.850166,92.546135 52.732014,92.018456 52.295479,91.088135 
	C56.900261,88.876396 57.810612,93.815323 60.650948,95.361290 
	C60.922096,95.657211 61.000252,96.000557 61.000252,96.000557 
z"/>
<path fill="#1D1D1D" opacity="1.000000" stroke="none" 
	d="
M83.578606,105.909378 
	C80.544159,105.574371 76.992104,107.132294 75.977219,101.994095 
	C77.735794,102.121414 79.094032,102.226471 80.453224,102.316963 
	C85.639862,102.662270 89.828987,100.698647 91.672150,95.847710 
	C93.401283,91.296867 97.727310,92.530731 100.651543,90.770615 
	C101.010307,91.782761 101.903793,93.511581 101.649147,93.701591 
	C96.164932,97.793472 90.555321,101.717514 84.955002,105.652740 
	C84.705894,105.827789 84.315521,105.801819 83.578606,105.909378 
z"/>
<path fill="#141414" opacity="1.000000" stroke="none" 
	d="
M30.400166,54.275455 
	C29.415258,49.983879 30.800573,47.205982 34.952747,46.981392 
	C38.740097,46.776535 40.228996,49.130322 40.551304,52.942909 
	C40.733128,55.093723 42.475586,57.112606 43.078625,60.437344 
	C38.914581,58.499012 34.750538,56.560680 30.400166,54.275455 
z"/>
<path fill="#161616" opacity="1.000000" stroke="none" 
	d="
M91.154419,65.001923 
	C92.484001,61.089329 93.422653,56.951500 95.299522,53.295296 
	C95.909431,52.107159 99.278984,51.340637 100.827362,51.907639 
	C102.392235,52.480686 104.024712,54.866955 104.204407,56.605961 
	C104.353783,58.051567 102.792618,60.356495 101.363579,61.140469 
	C98.392906,62.770184 95.007477,63.643902 91.421104,64.871475 
	C91.049683,64.914589 91.128082,64.963852 91.154419,65.001923 
z"/>
<path fill="#141414" opacity="1.000000" stroke="none" 
	d="
M82.277466,23.867046 
	C86.410919,26.533840 87.064011,29.452774 83.863113,33.040188 
	C82.412460,34.666012 81.261856,36.559563 79.954124,38.360600 
	C78.777115,36.206371 77.641701,34.643177 77.042152,32.896088 
	C76.347519,30.871904 75.128265,28.076946 75.953499,26.728096 
	C76.935211,25.123495 79.848518,24.700657 82.277466,23.867046 
z"/>
<path fill="#2F2F2F" opacity="1.000000" stroke="none" 
	d="
M72.111938,94.939789 
	C71.100853,95.323753 70.053543,95.690811 68.976067,96.068443 
	C66.631126,89.912186 67.536278,79.807236 71.152138,77.334244 
	C71.152138,83.206573 71.152138,88.858597 71.631180,94.747124 
	C72.110214,94.983635 72.075714,94.922890 72.111938,94.939789 
z"/>
<path fill="#212121" opacity="1.000000" stroke="none" 
	d="
M54.477531,101.888458 
	C56.977142,104.215492 56.847160,105.171654 53.997803,105.738365 
	C48.716316,106.788803 44.215176,105.170616 40.647800,99.836876 
	C41.968864,99.961220 43.303635,100.004738 44.608269,100.225960 
	C47.767017,100.761574 50.911720,101.380013 54.477531,101.888458 
z"/>
<path fill="#212121" opacity="1.000000" stroke="none" 
	d="
M85.075943,81.796715 
	C84.782440,82.158195 84.488937,82.519684 83.541725,83.074013 
	C82.597336,83.862976 82.306656,84.459084 82.015976,85.055199 
	C82.015976,85.055199 82.004929,84.979782 82.043060,84.979553 
	C81.417458,84.116814 80.753731,83.254295 80.089996,82.391777 
	C83.872742,79.842331 82.974777,75.915077 83.254807,72.247856 
	C83.343742,71.083305 84.565407,70.005249 85.901550,69.267471 
	C86.048248,73.697128 85.562096,77.746918 85.075943,81.796715 
z"/>
<path fill="#E0E0E0" opacity="1.000000" stroke="none" 
	d="
M85.418365,81.807312 
	C85.562096,77.746918 86.048248,73.697128 86.311333,69.301842 
	C86.333305,68.838699 86.549339,68.681259 86.846245,68.315353 
	C90.931190,69.930061 91.659042,73.701523 92.316330,77.702911 
	C89.948746,79.310738 87.854767,80.564323 85.418365,81.807312 
z"/>
<path fill="#323232" opacity="1.000000" stroke="none" 
	d="
M61.376495,95.963211 
	C61.000252,96.000557 60.922096,95.657211 60.982704,95.491913 
	C61.033146,92.691093 60.806210,90.031906 61.090424,87.428535 
	C61.274292,85.744324 62.205929,84.141762 62.802483,82.502609 
	C63.296909,82.629982 63.791332,82.757362 64.285759,82.884735 
	C64.285759,87.476814 64.285759,92.068893 64.285759,96.900299 
	C63.170933,96.471436 62.461834,96.198654 61.376495,95.963211 
z"/>
<path fill="#1D1D1D" opacity="1.000000" stroke="none" 
	d="
M23.978489,84.100700 
	C24.901188,84.345970 26.206676,84.261185 26.762938,84.865753 
	C28.515858,86.770897 30.071083,88.878700 31.517054,91.032768 
	C31.946608,91.672676 31.763332,92.723969 31.860863,93.586761 
	C30.980804,93.619125 29.544870,94.002060 29.309034,93.628120 
	C27.497349,90.755531 25.918737,87.735939 24.156250,84.383621 
	C24.044737,84.005257 24.018419,84.086105 23.978489,84.100700 
z"/>
<path fill="#212121" opacity="1.000000" stroke="none" 
	d="
M34.115181,76.257607 
	C34.350842,75.422829 34.675621,74.928993 35.190868,74.314415 
	C40.844067,75.787689 42.101433,78.003616 39.172752,81.925163 
	C37.475422,80.105476 35.839863,78.352013 34.115181,76.257607 
z"/>
<path fill="#CBCBCB" opacity="1.000000" stroke="none" 
	d="
M106.928108,86.078415 
	C105.222260,82.804047 103.669373,79.294113 102.053452,75.411858 
	C102.494026,74.726898 102.997620,74.414268 103.814590,74.087166 
	C104.016907,74.709862 103.745811,75.885864 103.817650,75.907196 
	C108.295731,77.237206 106.109123,81.655891 107.794769,84.664841 
	C107.596786,85.321480 107.338921,85.582169 106.928108,86.078415 
z"/>
<path fill="#E0E0E0" opacity="1.000000" stroke="none" 
	d="
M92.949982,79.255112 
	C93.507339,79.096954 94.068367,79.235146 94.778069,79.702255 
	C94.562813,80.056694 94.198898,80.082199 93.563286,80.073044 
	C93.178947,79.876068 93.066307,79.713760 92.949982,79.255112 
z"/>
<path fill="#090909" opacity="1.000000" stroke="none" 
	d="
M26.008930,108.011909 
	C25.832325,108.380524 25.507404,108.601204 25.182482,108.821884 
	C25.154263,108.544662 25.126047,108.267433 25.328365,107.781754 
	C25.558901,107.573303 25.860615,107.863976 26.008930,108.011909 
z"/>
<path fill="#F9F9F9" opacity="1.000000" stroke="none" 
	d="
M300.848694,47.568184 
	C301.530334,55.123455 303.371429,62.538719 302.255432,69.478424 
	C300.553101,80.064034 291.111176,86.019386 280.620758,85.127144 
	C271.221527,84.327705 263.308624,76.383232 262.376923,66.292114 
	C261.997864,62.186932 262.064301,57.927040 262.714050,53.863216 
	C264.237915,44.332745 269.894226,38.122845 279.471283,36.500450 
	C288.895721,34.903908 295.888367,39.132736 300.848694,47.568184 
z"/>
<path fill="#F2F2F2" opacity="1.000000" stroke="none" 
	d="
M63.902100,59.924664 
	C68.015121,58.288891 70.860382,59.986012 71.511101,63.358227 
	C71.888718,65.315117 70.318604,68.850769 68.647110,69.662590 
	C66.968277,70.477966 63.275898,69.537178 61.890041,68.044128 
	C59.385815,65.346214 60.445309,62.228073 63.902100,59.924664 
z"/>
<path fill="#EEEEEE" opacity="1.000000" stroke="none" 
	d="
M411.093994,66.260788 
	C408.823151,66.260925 407.033447,66.260925 404.229126,66.260925 
	C407.615326,56.602413 410.736938,47.698563 414.161743,37.929905 
	C417.657837,47.586323 420.847534,56.396431 424.418884,66.260658 
	C419.628510,66.260658 415.601837,66.260658 411.093994,66.260788 
z"/>
<path fill="#FBFBFB" opacity="1.000000" stroke="none" 
	d="
M82.304474,85.142281 
	C82.306656,84.459084 82.597336,83.862976 83.226845,83.233391 
	C83.241440,83.876396 82.917213,84.552879 82.304474,85.142281 
z"/>
<path fill="#E0E0E0" opacity="1.000000" stroke="none" 
	d="
M91.988861,78.247635 
	C92.388947,78.046303 92.843887,78.140099 93.176300,78.648979 
	C92.717087,78.890289 92.380402,78.716522 91.988861,78.247635 
z"/>
</svg>