<?xml version="1.0" encoding="UTF-8" standalone="no"?>
<svg
   version="1.1"
   id="Layer_1"
   x="0px"
   y="0px"
   width="288835.09"
   viewBox="0 0 288835.09 90058.625"
   enable-background="new 0 0 320 304"
   xml:space="preserve"
   height="90058.625"
   xmlns="http://www.w3.org/2000/svg"
   xmlns:svg="http://www.w3.org/2000/svg"><defs
   id="defs23" />
<path
   fill="#000000"
   opacity="1"
   stroke="none"
   d="m -5242.1186,-1662.0385 c -2.6797,4.7591 -6.3011,8.0933 -10.3199,11.1831 -42.523,32.6935 -84.9889,65.4613 -127.4818,98.194 -1.1048,0.851 -1.9176,2.3865 -3.7745,1.8959 -0.5875,-1.7732 0.7582,-2.8048 1.5383,-3.9647 30.8695,-45.8961 61.7581,-91.7794 92.6637,-137.6513 3.9294,-5.8322 10.1977,-9.0191 15.514,-13.2314 39.8251,-31.5553 79.7683,-62.9615 119.6967,-94.3862 1.1353,-0.8936 2.0835,-2.1975 5.2825,-2.4223 -31.3316,47.2311 -62.1281,93.6556 -93.119,140.3829 m -36.9778,-23.3843 c -4.6617,6.144 -5.3102,13.3201 -1.7152,18.9799 3.5597,5.6042 9.9401,8.2642 16.8527,7.0259 5.9557,-1.0669 11.0118,-6.1868 12.2032,-12.3571 1.2234,-6.3356 -1.6615,-12.949 -7.1202,-16.3225 -6.5815,-4.0675 -12.5475,-3.4161 -20.2205,2.6738 z"
   id="path1" />
<path
   fill="#000000"
   opacity="1"
   stroke="none"
   d="m -5294.3309,-1807.0881 c -16.5273,-7.6531 -34.541,-0.1455 -40.9465,17.107 -1.6379,4.4114 -3.9075,6.0365 -8.6148,6.4832 -23.817,2.2602 -39.6975,24.9429 -34.0609,48.1194 1.9683,8.0929 1.9683,8.0929 -4.9711,12.8817 -21.5308,14.8584 -24.0981,44.2143 -5.1747,62.3312 3.2418,3.1036 2.027,4.6863 -0.073,7.3019 -2.7899,3.4753 -4.5854,1.0037 -6.4888,-0.7245 -21.8742,-19.8595 -20.1891,-55.9066 3.6051,-74.6937 2.8683,-2.2647 3.7736,-4.3858 3.1597,-8.0358 -4.3625,-25.9375 12.4881,-50.5716 38.3558,-55.797 3.8885,-0.7856 5.6091,-2.6447 7.2574,-5.764 9.318,-17.6331 28.951,-25.9534 46.8741,-20.029 13.6606,4.5154 22.8647,16.4458 23.1728,31.7907 0.4483,22.3223 0.1535,44.6595 0.1806,66.9904 0.01,5.5546 -4.8104,6.4633 -8.0099,9.0492 -2.1724,-1.9224 -1.3901,-4.056 -1.3968,-5.9081 -0.082,-22.8311 -0.083,-45.6624 -0.1002,-68.4937 -0.01,-9.7763 -3.9532,-17.3618 -12.7692,-22.6089 z"
   id="path2" />
<path
   fill="#000000"
   opacity="1"
   stroke="none"
   d="m -5397.6282,-1630.4089 c 11.9714,-20.6403 27.4288,-37.2442 48.922,-47.454 12.7418,-6.0527 26.1246,-9.8973 40.4315,-9.4852 1.5804,0.045 3.3227,-0.5021 4.9425,0.9411 -0.9483,2.2869 -3.3132,1.9594 -4.9995,2.4689 -14.1335,4.2705 -27.4496,10.1016 -39.0978,19.3985 -2.3296,1.8594 -4.1368,3.4479 -1.885,6.4805 0.2699,0.3635 0.3134,0.9502 0.3296,1.4379 0.1066,3.1926 -12.5381,15.0343 -15.5227,13.9159 -4.0322,-1.5109 -5.9798,0.912 -8.0979,3.0425 -11.9185,11.9882 -21.7124,25.5998 -30.2199,40.1647 -2.6416,4.5224 -5.2178,9.0829 -8.4288,13.3712 1.1199,-15.7224 5.9451,-30.2461 13.626,-44.282 z"
   id="path3" />
<path
   fill="#000000"
   opacity="1"
   stroke="none"
   d="m -5146.5538,-1658.3994 c 20.3807,-19.8404 17.6001,-49.7556 -5.9925,-64.8127 -4.3826,-2.7971 -5.1603,-5.5625 -3.6663,-10.308 3.3138,-10.5253 2.0169,-20.7354 -3.6609,-30.2582 -3.7376,-6.2687 -3.7349,-6.7133 2.2318,-12.4183 6.8012,6.4283 9.8118,14.665 11.7588,23.4847 1.2797,5.7966 1.205,11.6239 -0.1604,17.3175 -0.8045,3.3544 0.3541,5.0504 2.8592,7.029 21.4524,16.943 25.9037,46.3991 10.5197,68.8205 -3.041,4.4319 -6.904,8.135 -11.1529,11.3591 -2.1228,1.6107 -2.9777,3.0612 -2.3268,5.8386 1.7034,7.2691 1.0634,14.542 -0.9749,21.6813 -0.482,1.6884 -0.6041,3.6732 -2.9768,4.9235 -1.675,-4.1705 -4.1723,-8.1528 -4.7253,-12.3889 -0.5619,-4.305 1.004,-8.8782 -1.2015,-13.0406 -0.4589,-0.1463 -0.7739,-0.34 -1.0825,-0.3302 -2.4209,0.077 -5.7351,2.4566 -6.7795,-1.4519 -0.9749,-3.6484 1.7019,-6.4518 4.6693,-7.8687 4.3809,-2.0918 8.69,-4.1697 12.6615,-7.5767 z"
   id="path4" />
<path
   fill="#000000"
   opacity="1"
   stroke="none"
   d="m -5197.7734,-1648.391 c 2.2042,-2.5603 1.9662,-4.4889 -0.1281,-6.7569 -6.7026,-7.2586 -13.9924,-13.7852 -22.3103,-19.1506 -1.7038,-1.099 -4.3349,-1.8624 -2.9214,-4.8411 1.4472,-3.0498 3.7931,-2.5688 6.3492,-1.5453 22.4937,9.0075 39.6253,24.2377 51.8492,45.0064 11.556,19.6338 16.6654,40.8636 14.9255,63.653 -0.082,1.0793 0.2874,2.3856 -1.8832,3.4204 -1.8378,-6.5514 -3.7822,-12.9384 -6.0072,-19.2167 -4.9824,-14.0587 -11.3942,-27.3479 -20.002,-39.5519 -1.6195,-2.2961 -2.911,-5.1054 -6.6092,-3.8197 -0.2707,0.094 -0.7646,0.013 -0.9497,-0.1819 -4.8159,-5.0641 -10.9875,-9.1252 -12.3128,-17.0157 z"
   id="path5" />
<path
   fill="#000000"
   opacity="1"
   stroke="none"
   d="m -5210.9965,-1613.8388 c -10.6039,9.4046 -20.9045,18.6195 -31.269,27.7619 -1.9145,1.6887 -2.659,3.6004 -2.6201,6.1321 0.1149,7.4946 0.2217,14.9976 -0.02,22.4859 -0.1193,3.6894 0.9341,6.0735 4.0841,8.2772 5.4754,3.8307 7.0746,10.6599 4.5931,16.4673 -2.5022,5.8559 -8.258,9.4061 -14.3048,8.8231 -6.4087,-0.6179 -11.3161,-5.1065 -12.4174,-11.8073 -0.9119,-5.5477 0.9312,-10.3812 5.592,-13.5127 3.0664,-2.0602 3.9341,-4.46 3.8628,-7.9204 -0.1751,-8.4922 0.046,-16.9924 -0.107,-25.4855 -0.058,-3.212 0.7847,-5.6734 3.1353,-7.9847 16.1481,-15.8779 33.1367,-30.8881 48.8007,-47.2628 1.9654,-2.0546 3.4372,-1.7626 5.3601,0.2487 5.6336,5.8926 5.697,6.3041 -0.382,11.5241 -4.6744,4.0139 -9.3508,8.0255 -14.3076,12.2531 m -37.8582,71.0865 c -2.928,0.033 -4.7233,1.4721 -5.1345,4.3773 -0.3096,2.1873 0.5501,3.9197 2.5528,4.9682 1.8293,0.9576 3.5964,0.6082 5.1553,-0.5671 3.0772,-2.3203 2.2657,-6.0068 -2.5736,-8.7784 z"
   id="path6" />
<path
   fill="#000000"
   opacity="1"
   stroke="none"
   d="m -5254.4143,-1729.8207 c -2.3597,1.884 -4.0792,3.9799 -6.4976,5.0159 -2.2858,-1.4062 -1.4356,-3.4379 -1.4425,-5.1123 -0.072,-17.6605 -0.019,-35.3216 -0.085,-52.9822 -0.058,-15.3877 5.922,-27.3485 20.2979,-33.7464 14.9216,-6.6407 28.6329,-3.2518 40.944,6.8588 3.7687,3.0951 6.9664,6.8407 8.898,11.3072 1.7446,4.034 4.0029,6.6362 8.704,6.7194 1.5249,0.027 3.3323,0.3292 5.0012,2.3671 -3.9454,2.3149 -6.1749,6.8486 -11.7159,6.2977 -4.4298,-0.4405 -6.9342,-2.2148 -8.4816,-6.8142 -6.8366,-20.3193 -33.3205,-27.1708 -47.3922,-12.5196 -4.4774,4.6617 -6.6749,10.2652 -6.6792,16.7191 -0.011,16.4946 0.015,32.9892 -0.033,49.4836 -0.01,2.0972 0.6034,4.3867 -1.518,6.4059 z"
   id="path7" />
<path
   fill="#000000"
   opacity="1"
   stroke="none"
   d="m -5307.2981,-1744.0137 c -0.059,7.4728 -0.038,14.4598 -0.2147,21.4419 -0.081,3.2089 0.797,5.7837 3.225,7.984 2.8311,2.5657 5.4456,5.3709 8.1461,8.0802 5.6602,5.6787 5.6477,5.8428 -1.1654,11.8164 -6.4801,-5.7669 -12.6909,-11.8935 -18.4416,-18.4872 -1.1764,-1.3489 -0.8123,-3.1685 -0.8151,-4.8161 -0.017,-10.3133 -0.091,-20.6275 0.031,-30.9393 0.035,-2.9229 -0.6865,-4.8558 -3.3527,-6.5409 -5.9635,-3.7689 -8.2157,-10.7691 -6.1643,-17.4777 1.6904,-5.5279 7.7013,-9.9697 13.5956,-10.0466 6.1945,-0.081 12.3604,4.1511 14.3116,9.8227 2.2374,6.5036 0.5116,13.2185 -5.5385,17.1302 -4.8549,3.1388 -3.2284,7.4659 -3.6174,12.0324 m -2.6104,-28.7642 c -4.0388,-1.7063 -6.5523,0.263 -7.6544,3.8257 -0.9112,2.9454 0.8898,5.133 3.6966,6.1532 2.5607,0.9308 4.5194,-0.3221 6.0316,-2.3068 2.254,-2.9582 0.8045,-5.235 -2.0738,-7.6721 z"
   id="path8" />
<path
   fill="#000000"
   opacity="1"
   stroke="none"
   d="m -5283.4878,-1524.0304 c -7.8903,-0.4634 -12.6168,-3.7257 -14.5542,-9.7134 -1.8981,-5.8662 -0.1597,-11.3129 5.6316,-15.7538 2.4587,-1.8855 3.1206,-3.9826 3.0833,-6.8204 -0.1005,-7.6522 -0.1546,-15.3088 0,-22.9589 0.064,-3.1201 -1.0979,-5.3137 -3.3004,-7.3953 -4.6785,-4.4216 -9.7904,-8.4319 -13.7926,-13.4495 4.9809,-6.6524 6.1157,-6.7566 11.5752,-1.3694 3.671,3.6224 7.2423,7.3563 11.0689,10.8066 2.7224,2.4547 3.6502,5.3192 3.5979,8.8619 -0.1254,8.4838 -0.055,16.9703 -0.082,25.4556 -0.01,2.5693 0.305,4.7371 2.844,6.406 5.2201,3.4313 7.4463,8.6139 6.219,14.6805 -1.2717,6.2855 -5.3931,10.1486 -12.2936,11.2501 m 3.8051,-13.5951 c -0.2997,-0.9255 -0.3987,-1.993 -0.935,-2.7511 -1.9388,-2.7403 -4.481,-3.3387 -7.1905,-1.2339 -2.2331,1.7347 -2.9008,4.1345 -0.9928,6.4664 2.1068,2.5747 4.764,2.7379 7.3587,0.6234 0.7245,-0.5904 1.1236,-1.5803 1.7596,-3.1048 z"
   id="path9" />
<path
   fill="#000000"
   opacity="1"
   stroke="none"
   d="m -5168.6435,-1601.4413 c 3.1631,4.7624 1.2223,6.8794 -3.2089,8.6809 -12.3057,5.0026 -12.1823,5.195 -20.3488,15.4918 -10.2644,12.9419 -23.523,18.5497 -39.9962,15.7264 -7.6522,-1.3115 -8.1911,-2.2594 -6.8207,-10.5292 2.1912,-1.1654 4.1467,0.3469 6.1085,0.837 16.0725,4.0157 32.3981,-4.3568 37.6471,-19.9292 1.6333,-4.8456 4.2449,-7.0017 9.1942,-7.404 4.3092,-0.3503 8.4716,-1.7118 12.2841,-3.872 1.8872,-1.0693 3.645,-1.9156 5.1407,0.9983 z"
   id="path10" />
<path
   fill="#000000"
   opacity="1"
   stroke="none"
   d="m -5175.3871,-1682.9964 c -5.8316,-1.7206 -9.724,-0.013 -13.2826,4.4827 -4.7481,5.998 -5.8483,5.7361 -11.6436,-0.3774 1.7724,-3.4128 4.8757,-5.7358 7.5315,-8.4 2.1362,-2.1429 3.0721,-4.0691 2.3354,-7.3744 -1.899,-8.5206 3.6283,-16.2734 11.9818,-17.6393 8.2475,-1.3486 15.3939,3.8463 16.9925,12.3523 1.5464,8.229 -3.7896,14.9222 -13.915,16.9561 m 4.1726,-17.5493 c -0.8945,-1.2684 -2.0705,-2.1197 -3.6254,-2.3546 -3.5221,-0.532 -5.9089,1.0463 -6.6636,4.376 -0.6871,3.0315 1.0906,5.1664 3.9298,5.9429 3.366,0.9206 5.8575,-0.4769 6.8468,-3.8854 0.3003,-1.0348 -0.074,-2.2653 -0.4876,-4.0789 z"
   id="path11" />
<path
   fill="#000000"
   opacity="1"
   stroke="none"
   d="m -5343.2258,-1693.0552 c -2.2454,-2.9064 -4.5673,-3.4963 -8.0081,-2.8741 -7.1465,1.2922 -13.0265,-2.157 -15.8627,-8.411 -2.612,-5.7594 -1.2353,-12.5758 3.4126,-16.8975 4.5722,-4.2512 11.309,-4.9748 17.1395,-1.8409 5.6277,3.0249 8.5468,9.2001 7.0471,16.1101 -0.6188,2.8511 0.045,4.7289 1.936,6.6699 2.9759,3.0545 6.3086,5.8153 8.6706,9.4925 -7.669,4.2474 -7.7573,4.2338 -14.335,-2.249 m -14.8844,-20.2319 c -1.5916,3.2698 -1.4194,6.1327 2.1626,7.9065 2.5726,1.274 4.9364,0.5278 6.5584,-1.7067 1.6282,-2.243 1.6004,-4.7821 -0.436,-6.7626 -2.4708,-2.4028 -5.2122,-2.6744 -8.285,0.5628 z"
   id="path12" />
<path
   fill="#000000"
   opacity="1"
   stroke="none"
   d="m -5232.8796,-1759.9548 c -5.8088,-4.0658 -10.2834,-8.3602 -9.735,-16.0044 0.494,-6.8846 4.8333,-12.1965 11.7341,-13.6 6.6627,-1.3552 13.5961,2.0044 16.1878,7.8439 3.0564,6.8863 1.5301,14.5315 -4.1202,18.3595 -2.6753,1.8124 -4.2503,3.5185 -4.5011,7.0201 -0.3329,4.646 -4.8788,5.5803 -8.3993,8.0432 -1.4649,-4.085 -0.3725,-7.7871 -1.1663,-11.6623 m 10.0976,-16.9283 c -1.2977,-2.6437 -3.2857,-4.3398 -6.3278,-3.4882 -2.546,0.7128 -4.4063,2.5996 -4.5416,5.3339 -0.1302,2.6309 1.7513,4.2082 4.0398,5.0993 3.7889,1.4754 6.5311,-1.0003 6.8296,-6.945 z"
   id="path13" />
<path
   fill="#000000"
   opacity="1"
   stroke="none"
   d="m -5262.4161,-1625.9924 c -0.034,-9.8806 1.1346,-11.8224 8.5424,-14.5673 1.5532,1.2412 0.9658,3.0314 0.9726,4.5795 0.053,12.1571 -0.033,24.3149 0.066,36.4713 0.025,3.0338 -0.4729,5.7296 -3.1489,7.4003 -3.5061,2.1889 -1.2101,6.238 -3.5856,8.9834 -4.7798,-13.8615 -2.0073,-28.2638 -2.8467,-42.8672 z"
   id="path14" />
<path
   fill="#000000"
   opacity="1"
   stroke="none"
   d="m -5327.2251,-1564.8974 c -3.6649,-1.7372 -6.7474,-3.7281 -9.3844,-6.2613 -1.4607,-1.4031 -4.5682,-2.8058 -1.7914,-5.4907 2.1788,-2.1068 4.389,-4.7684 8.026,-1.7288 6.5617,5.4837 13.9591,8.7497 22.8158,8.1841 4.1933,-0.2679 7.917,-2.2146 11.947,-2.881 2.5782,8.4409 1.6229,10.1996 -6.5508,11.6709 -8.5728,1.5431 -16.8493,0.5139 -25.0622,-3.4932 z"
   id="path15" />
<path
   fill="#000000"
   opacity="1"
   stroke="none"
   d="m -5227.9159,-1627.5846 c 9.1117,-4.3758 7.9596,-12.3164 7.8249,-19.9033 -0.062,-3.4961 -0.082,-7.0061 0.1588,-10.4903 0.2002,-2.8914 1.9859,-5.2584 4.6057,-5.98 2.5514,-0.7027 3.8247,2.1678 5.5665,3.5925 0.6571,0.5375 1.1658,1.4246 0.6862,2.2194 -3.4749,5.7586 -1.3309,12.0593 -1.6728,18.09 -0.1843,3.2527 -1.0658,5.6547 -3.4184,7.8645 -5.0482,4.7415 -9.91,9.6815 -15.4208,15.1035 -1.583,-4.4393 -0.078,-7.3181 1.6699,-10.4963 z"
   id="path16" />
<path
   fill="#000000"
   opacity="1"
   stroke="none"
   d="m -5272.0711,-1616.9944 c -0.3399,10.5968 0.9399,20.7708 -1.1455,30.8062 -0.2537,1.2213 -0.3269,2.6651 -1.6485,3.4762 -1.7993,-0.8832 -1.1402,-2.5617 -1.2748,-3.9482 -0.1441,-1.4834 0.1948,-3.3553 -1.0378,-4.2381 -5.4298,-3.8892 -4.3604,-9.5409 -4.3789,-14.9282 -0.01,-2.6589 0.3328,-5.3676 -0.059,-7.9672 -0.9889,-6.5649 2.9687,-9.5964 8.0742,-12.2738 2.386,2.6708 1.077,5.7859 1.4701,9.0731 z"
   id="path17" />
<path
   fill="#000000"
   opacity="1"
   stroke="none"
   d="m -5377.0722,-1601.265 c -1.9122,-2.5374 -3.74,-4.7154 -5.2228,-7.1072 -4.5719,-7.3748 -4.2594,-9.0931 2.3594,-15.2461 1.2559,0.06 1.5603,1.1472 1.8293,2.0107 2.6238,8.4229 7.5242,15.1673 14.9234,19.9571 3.0788,1.9931 2.1774,3.7652 0.5302,6.1121 -1.6283,2.32 -3.0467,3.9015 -5.9748,1.791 -2.9869,-2.1527 -5.7491,-4.5196 -8.4447,-7.5176 z"
   id="path18" />
<path
   fill="#000000"
   opacity="1"
   stroke="none"
   d="m -5336.43,-1636.6282 c -0.1305,3.9407 -2.6871,6.0853 -5.2842,8.9763 -5.6158,-4.2254 -10.4282,-9.0408 -15.1491,-13.5997 0.304,-0.9068 0.3242,-1.2908 0.5237,-1.5153 7.1856,-8.0847 7.1968,-8.0908 14.4909,-0.159 1.7933,1.9501 3.5077,3.9728 5.4187,6.2977 z"
   id="path19" />
<path
   fill="#000000"
   opacity="1"
   stroke="none"
   d="m -5170.7763,-1662.5896 c 5.9722,6.6157 6.3931,9.2282 1.9989,14.2183 -3.5481,-4.0802 -7.1138,-8.064 -10.5353,-12.1679 -1.546,-1.8543 -0.2388,-3.0388 1.4261,-3.8055 2.621,-1.2069 4.8021,-0.133 7.1103,1.7551 z"
   id="path20" />
<path
   fill="#000000"
   opacity="1"
   stroke="none"
   d="m -5371.0519,-1676.1553 c 2.3317,0.071 4.1813,0.6848 4.6756,2.6901 0.4859,1.971 -1.5637,2.7144 -2.7053,3.7928 -2.1675,2.0472 -4.4381,3.9869 -6.6975,5.9345 -1.2255,1.0565 -2.4532,2.5994 -4.2416,0.9943 -1.5238,-1.3676 -1.9341,-3.1607 -0.888,-4.9578 2.2233,-3.8191 5.351,-6.6892 9.8568,-8.4539 z"
   id="path21" />
<path
   fill="#000000"
   opacity="1"
   stroke="none"
   d="m -5318.8475,-1674.95 c 3.1436,-1.6531 5.7608,-1.2133 6.8089,1.7993 0.907,2.6068 -1.2594,5.4395 -3.1447,6.0617 -3.9696,1.3103 -5.0057,-3.0839 -7.2518,-4.9076 0.2061,-2.3114 2.0473,-2.1586 3.5876,-2.9534 z"
   id="path22" />
<path
   fill="#000000"
   opacity="1"
   stroke="none"
   d="m -5205.7147,-1612.3636 c 1.2986,-0.7703 1.8248,-2.4592 3.8884,-1.586 -1.8455,3.8413 -4.1641,6.7694 -9.2207,7.4742 0.993,-3.0597 3.2758,-4.1629 5.3323,-5.8882 z"
   id="path23" />
<path
   d="m -5049.9948,-1658.5635 v -15.5334 l 41.8418,-0.111 v 49.1153 q -9.6537,10.3187 -19.8866,15.4965 -10.2328,5.1778 -20.9898,5.1778 -14.5633,0 -26.4511,-8.3215 -11.8878,-8.3585 -17.9282,-24.1878 -6.068,-15.7923 -6.068,-35.2831 0,-19.3429 6.0404,-36.0599 6.0129,-16.7539 17.3215,-24.8905 11.3085,-8.1365 26.0649,-8.1365 10.7017,0 19.3625,4.66 8.6607,4.66 13.5703,12.9445 4.9096,8.3215 7.4747,21.6729 l -11.7775,4.3272 q -2.2341,-10.0967 -5.544,-15.8663 -3.2822,-5.8066 -9.4054,-9.2831 -6.1508,-3.4396 -13.6255,-3.4396 -8.9365,0 -15.4734,3.6245 -6.5369,3.6615 -10.5363,9.616 -3.9994,5.9914 -6.2335,13.0924 -3.7788,12.2789 -3.7788,26.6658 0,17.6786 4.5511,29.5876 4.551,11.9459 13.2393,17.7155 8.6883,5.7696 18.4523,5.7696 8.4676,0 16.5491,-4.3642 8.0815,-4.4011 12.274,-9.3571 v -24.6316 z m 61.3698,51.8892 v -132.3673 h 71.3544 v 15.6444 h -58.3082 v 40.5349 h 54.6122 v 15.5335 h -54.6122 v 45.047 h 60.5975 v 15.6075 z m 87.7381,-64.4639 q 0,-32.9531 13.1841,-51.5933 13.2118,-18.6401 34.0913,-18.6401 13.653,0 24.6306,8.7653 10.9776,8.7283 16.7422,24.4097 5.7647,15.6814 5.7647,35.5421 0,20.1195 -6.0681,36.0228 -6.068,15.9033 -17.1835,24.0399 -11.1155,8.1735 -23.9687,8.1735 -13.9288,0 -24.9064,-9.0242 -10.9776,-9.0242 -16.6319,-24.6316 -5.6543,-15.6444 -5.6543,-33.0641 m 13.4599,0.2959 q 0,23.9289 9.5985,37.6871 9.5986,13.7582 24.0791,13.7582 14.7287,0 24.272,-13.9061 9.5158,-13.9062 9.5158,-39.4624 0,-16.1622 -4.0545,-28.2191 -4.0822,-12.0569 -11.943,-18.6771 -7.8333,-6.6203 -17.5973,-6.6203 -13.8737,0 -23.8583,12.7597 -10.0123,12.7596 -10.0123,42.68 z m 97.3642,64.168 v -132.3673 h 19.6659 l 23.3619,93.7185 q 3.2547,13.0925 4.7165,19.6018 1.6825,-7.212 5.2681,-21.1921 l 23.6377,-92.1282 h 17.5697 v 132.3673 h -12.6049 v -110.7684 l -28.6852,110.7684 h -11.7775 l -28.5473,-112.6916 v 112.6916 z m 104.4527,0 37.8976,-132.3673 h 14.0943 l 40.3799,132.3673 h -14.8666 l -11.5293,-40.0911 h -41.2625 l -10.8397,40.0911 h -13.8737 m 28.4921,-54.3302 h 33.4569 l -10.3156,-36.6885 q -4.689,-16.68 -6.9783,-27.4424 -1.9031,12.7226 -5.3233,25.2973 z m 69.8926,11.7981 12.3291,-1.4424 q 0.855,9.9488 4.0546,16.3101 3.1995,6.3613 9.9294,10.2817 6.7576,3.9573 15.1701,3.9573 7.4747,0 13.1842,-2.9957 5.737,-2.9958 8.5228,-8.1736 2.7857,-5.1778 2.7857,-11.3172 0,-6.2504 -2.6754,-10.9104 -2.703,-4.6231 -8.909,-7.8037 -3.9718,-2.0712 -17.5697,-6.4353 -13.5978,-4.4012 -19.059,-8.2845 -7.061,-4.9559 -10.5363,-12.3158 -3.4754,-7.3599 -3.4754,-16.4581 0,-10.0228 4.2477,-18.7511 4.2476,-8.7283 12.4118,-13.2404 8.1367,-4.5121 18.0938,-4.5121 10.9775,0 19.3625,4.734 8.3849,4.771 12.9083,13.9801 4.4958,9.2091 4.8268,20.8592 l -12.5222,1.2575 q -0.9929,-12.5747 -6.8127,-18.973 -5.8474,-6.3983 -17.2111,-6.3983 -11.8602,0 -17.2663,5.8065 -5.4336,5.8435 -5.4336,14.0541 0,7.138 3.8339,11.7241 3.7787,4.623 19.6934,9.431 15.9424,4.8449 21.8725,8.4694 8.6056,5.3258 12.7153,13.4993 4.1097,8.1736 4.1097,18.8251 0,10.5406 -4.5235,19.8976 -4.4958,9.3571 -12.9635,14.5349 -8.44,5.1778 -19.0039,5.1778 -13.4048,0 -22.4793,-5.2148 -9.0468,-5.2518 -14.2046,-15.7554 -5.1303,-10.5405 -5.4061,-23.8179 z"
   id="path1-3"
   style="fill:#000000;stroke-width:3.1939" /></svg>
