<svg xmlns="http://www.w3.org/2000/svg" viewBox="0 8.84000015258789 214.2100067138672 37.029998779296875" data-asc="0.9052734375" width="214.2100067138672" height="37.029998779296875"><defs/><g fill="#ffffff"><g transform="translate(0, 0)"><path d="M17.94 31.23L17.94 27.03L33.11 27.00L33.11 40.28Q29.61 43.07 25.90 44.47Q22.19 45.87 18.29 45.87Q13.01 45.87 8.70 43.62Q4.39 41.36 2.20 37.08Q0 32.81 0 27.54Q0 22.31 2.19 17.79Q4.37 13.26 8.47 11.06Q12.57 8.86 17.92 8.86Q21.80 8.86 24.94 10.12Q28.08 11.38 29.86 13.62Q31.64 15.87 32.57 19.48L28.30 20.65Q27.49 17.92 26.29 16.36Q25.10 14.79 22.88 13.85Q20.65 12.92 17.94 12.92Q14.70 12.92 12.33 13.90Q9.96 14.89 8.51 16.50Q7.06 18.12 6.25 20.04Q4.88 23.36 4.88 27.25Q4.88 32.03 6.53 35.25Q8.18 38.48 11.33 40.04Q14.48 41.60 18.02 41.60Q21.09 41.60 24.02 40.42Q26.95 39.23 28.47 37.89L28.47 31.23L17.94 31.23ZM40.19 45.26L40.19 9.47L66.06 9.47L66.06 13.70L44.92 13.70L44.92 24.66L64.72 24.66L64.72 28.86L44.92 28.86L44.92 41.04L66.89 41.04L66.89 45.26L40.19 45.26ZM72.00 27.83Q72.00 18.92 76.78 13.88Q81.57 8.84 89.14 8.84Q94.09 8.84 98.07 11.21Q102.05 13.57 104.14 17.81Q106.23 22.05 106.23 27.42Q106.23 32.86 104.03 37.16Q101.83 41.46 97.80 43.66Q93.77 45.87 89.11 45.87Q84.06 45.87 80.08 43.43Q76.10 40.99 74.05 36.77Q72.00 32.54 72.00 27.83M76.88 27.91Q76.88 34.38 80.36 38.10Q83.84 41.82 89.09 41.82Q94.43 41.82 97.89 38.06Q101.34 34.30 101.34 27.39Q101.34 23.02 99.87 19.76Q98.39 16.50 95.54 14.71Q92.70 12.92 89.16 12.92Q84.13 12.92 80.51 16.37Q76.88 19.82 76.88 27.91ZM112.18 45.26L112.18 9.47L119.31 9.47L127.78 34.81Q128.96 38.35 129.49 40.11Q130.10 38.16 131.40 34.38L139.97 9.47L146.34 9.47L146.34 45.26L141.77 45.26L141.77 15.31L131.37 45.26L127.10 45.26L116.75 14.79L116.75 45.26L112.18 45.26ZM150.05 45.26L163.79 9.47L168.90 9.47L183.54 45.26L178.15 45.26L173.97 34.42L159.01 34.42L155.08 45.26L150.05 45.26M160.38 30.57L172.51 30.57L168.77 20.65Q167.07 16.14 166.24 13.23Q165.55 16.67 164.31 20.07L160.38 30.57ZM185.72 33.76L190.19 33.37Q190.50 36.06 191.66 37.78Q192.82 39.50 195.26 40.56Q197.71 41.63 200.76 41.63Q203.47 41.63 205.54 40.82Q207.62 40.01 208.63 38.61Q209.64 37.21 209.64 35.55Q209.64 33.86 208.67 32.60Q207.69 31.35 205.44 30.49Q204.00 29.93 199.07 28.75Q194.14 27.56 192.16 26.51Q189.60 25.17 188.34 23.18Q187.08 21.19 187.08 18.73Q187.08 16.02 188.62 13.66Q190.16 11.30 193.12 10.08Q196.07 8.86 199.68 8.86Q203.66 8.86 206.70 10.14Q209.74 11.43 211.38 13.92Q213.01 16.41 213.13 19.56L208.59 19.90Q208.23 16.50 206.12 14.77Q204.00 13.04 199.88 13.04Q195.58 13.04 193.62 14.61Q191.65 16.19 191.65 18.41Q191.65 20.34 193.04 21.58Q194.41 22.83 200.18 24.13Q205.96 25.44 208.11 26.42Q211.23 27.86 212.72 30.07Q214.21 32.28 214.21 35.16Q214.21 38.01 212.57 40.54Q210.94 43.07 207.87 44.47Q204.81 45.87 200.98 45.87Q196.12 45.87 192.83 44.46Q189.55 43.04 187.68 40.20Q185.82 37.35 185.72 33.76Z"/></g></g></svg>